<svg width="88" height="80" viewBox="0 0 88 80" fill="none" xmlns="http://www.w3.org/2000/svg">
<g clip-path="url(#clip0)">
<path d="M0 0L53.8734 56.5218H0V0Z" fill="#FD5050"/>
<path opacity="0.8" d="M54.148 0L86.7988 56.523H21.4961L54.148 0Z" fill="#FD5050"/>
<path d="M9.00293 9.55225L45.5152 47.8603H9.00293V9.55225Z" fill="#EA9090"/>
<path opacity="0.8" d="M54.1479 20.2986L70.0822 48.1648H38.2124L54.1479 20.2986Z" fill="#FD5050"/>
<path d="M2.93945 68.666H7.29395V70.3135H0.888672V60.3604H2.93945V68.666ZM10.4316 70.3135H8.44922V62.917H10.4316V70.3135ZM8.33301 61.0029C8.33301 60.7067 8.43099 60.4629 8.62695 60.2715C8.82747 60.0801 9.09863 59.9844 9.44043 59.9844C9.77767 59.9844 10.0465 60.0801 10.2471 60.2715C10.4476 60.4629 10.5479 60.7067 10.5479 61.0029C10.5479 61.3037 10.4453 61.5498 10.2402 61.7412C10.0397 61.9326 9.77311 62.0283 9.44043 62.0283C9.10775 62.0283 8.83887 61.9326 8.63379 61.7412C8.43327 61.5498 8.33301 61.3037 8.33301 61.0029ZM12.6055 70.3135V64.3662H11.5049V62.917H12.6055V62.2881C12.6055 61.4587 12.8424 60.8161 13.3164 60.3604C13.7949 59.9001 14.4626 59.6699 15.3193 59.6699C15.5928 59.6699 15.9277 59.7155 16.3242 59.8066L16.3037 61.3379C16.1396 61.2969 15.9391 61.2764 15.7021 61.2764C14.9593 61.2764 14.5879 61.625 14.5879 62.3223V62.917H16.0576V64.3662H14.5879V70.3135H12.6055ZM20.3232 70.4502C19.2386 70.4502 18.3545 70.1175 17.6709 69.4521C16.9919 68.7868 16.6523 67.9004 16.6523 66.793V66.6016C16.6523 65.8587 16.7959 65.1956 17.083 64.6123C17.3701 64.0244 17.7757 63.5732 18.2998 63.2588C18.8285 62.9398 19.43 62.7803 20.1045 62.7803C21.1162 62.7803 21.9115 63.0993 22.4902 63.7373C23.0736 64.3753 23.3652 65.2799 23.3652 66.4512V67.2578H18.6553C18.7191 67.7409 18.9105 68.1283 19.2295 68.4199C19.5531 68.7116 19.9609 68.8574 20.4531 68.8574C21.2142 68.8574 21.8089 68.5817 22.2373 68.0303L23.208 69.1172C22.9118 69.5365 22.5107 69.8646 22.0049 70.1016C21.499 70.334 20.9385 70.4502 20.3232 70.4502ZM20.0977 64.3799C19.7057 64.3799 19.3867 64.512 19.1406 64.7764C18.8991 65.0407 18.7441 65.4189 18.6758 65.9111H21.4238V65.7539C21.4147 65.3164 21.2962 64.9792 21.0684 64.7422C20.8405 64.5007 20.5169 64.3799 20.0977 64.3799ZM33.7285 68.2627H30.1328L29.4492 70.3135H27.2686L30.9736 60.3604H32.874L36.5996 70.3135H34.4189L33.7285 68.2627ZM30.6865 66.6016H33.1748L31.9238 62.876L30.6865 66.6016ZM41.5557 64.7695C41.2868 64.7331 41.0498 64.7148 40.8447 64.7148C40.0973 64.7148 39.6074 64.9678 39.375 65.4736V70.3135H37.3994V62.917H39.2656L39.3203 63.7988C39.7168 63.1198 40.266 62.7803 40.9678 62.7803C41.1865 62.7803 41.3916 62.8099 41.583 62.8691L41.5557 64.7695ZM45.4521 68.8574C45.8167 68.8574 46.113 68.7572 46.3408 68.5566C46.5687 68.3561 46.6872 68.0895 46.6963 67.7568H48.5488C48.5443 68.2581 48.4076 68.7184 48.1387 69.1377C47.8698 69.5524 47.5007 69.876 47.0312 70.1084C46.5664 70.3363 46.0514 70.4502 45.4863 70.4502C44.429 70.4502 43.5951 70.1152 42.9844 69.4453C42.3737 68.7708 42.0684 67.8411 42.0684 66.6562V66.5264C42.0684 65.387 42.3714 64.4779 42.9775 63.7988C43.5837 63.1198 44.4154 62.7803 45.4727 62.7803C46.3978 62.7803 47.1383 63.0446 47.6943 63.5732C48.2549 64.0973 48.5397 64.7969 48.5488 65.6719H46.6963C46.6872 65.2891 46.5687 64.9792 46.3408 64.7422C46.113 64.5007 45.8122 64.3799 45.4385 64.3799C44.9782 64.3799 44.6296 64.5485 44.3926 64.8857C44.1602 65.2184 44.0439 65.7607 44.0439 66.5127V66.7178C44.0439 67.4788 44.1602 68.0257 44.3926 68.3584C44.625 68.6911 44.9782 68.8574 45.4521 68.8574ZM51.6045 63.7236C52.1286 63.0947 52.7871 62.7803 53.5801 62.7803C55.1842 62.7803 55.9977 63.7122 56.0205 65.5762V70.3135H54.0449V65.6309C54.0449 65.207 53.9538 64.8949 53.7715 64.6943C53.5892 64.4893 53.2861 64.3867 52.8623 64.3867C52.2835 64.3867 51.8643 64.61 51.6045 65.0566V70.3135H49.6289V59.8135H51.6045V63.7236ZM59.5957 70.3135H57.6133V62.917H59.5957V70.3135ZM57.4971 61.0029C57.4971 60.7067 57.5951 60.4629 57.791 60.2715C57.9915 60.0801 58.2627 59.9844 58.6045 59.9844C58.9417 59.9844 59.2106 60.0801 59.4111 60.2715C59.6117 60.4629 59.7119 60.7067 59.7119 61.0029C59.7119 61.3037 59.6094 61.5498 59.4043 61.7412C59.2038 61.9326 58.9372 62.0283 58.6045 62.0283C58.2718 62.0283 58.0029 61.9326 57.7979 61.7412C57.5973 61.5498 57.4971 61.3037 57.4971 61.0029ZM63.998 67.9004L65.3721 62.917H67.4365L64.9414 70.3135H63.0547L60.5596 62.917H62.624L63.998 67.9004ZM71.6201 70.4502C70.5355 70.4502 69.6514 70.1175 68.9678 69.4521C68.2887 68.7868 67.9492 67.9004 67.9492 66.793V66.6016C67.9492 65.8587 68.0928 65.1956 68.3799 64.6123C68.667 64.0244 69.0726 63.5732 69.5967 63.2588C70.1253 62.9398 70.7269 62.7803 71.4014 62.7803C72.4131 62.7803 73.2083 63.0993 73.7871 63.7373C74.3704 64.3753 74.6621 65.2799 74.6621 66.4512V67.2578H69.9521C70.016 67.7409 70.2074 68.1283 70.5264 68.4199C70.8499 68.7116 71.2578 68.8574 71.75 68.8574C72.5111 68.8574 73.1058 68.5817 73.5342 68.0303L74.5049 69.1172C74.2087 69.5365 73.8076 69.8646 73.3018 70.1016C72.7959 70.334 72.2354 70.4502 71.6201 70.4502ZM71.3945 64.3799C71.0026 64.3799 70.6836 64.512 70.4375 64.7764C70.196 65.0407 70.041 65.4189 69.9727 65.9111H72.7207V65.7539C72.7116 65.3164 72.5931 64.9792 72.3652 64.7422C72.1374 64.5007 71.8138 64.3799 71.3945 64.3799Z" fill="#EA635F"/>
</g>
<defs>
<clipPath id="clip0">
<rect width="87.1642" height="80" fill="white"/>
</clipPath>
</defs>
</svg>
