<svg width="119" height="150" viewBox="0 0 119 150" fill="none" xmlns="http://www.w3.org/2000/svg">
<g clip-path="url(#clip0)">
<path d="M91.1464 64.3634L81.9451 71.2668C75.8077 75.8721 67.0124 74.1832 63.0347 67.5752C59.6384 61.9454 60.9951 54.5437 66.3664 50.5106C71.9869 46.2929 70.0119 47.7696 75.5678 43.6073C77.5613 42.0753 92.3647 29.939 70.1503 22.565C53.5934 17.9966 36.3812 21.6052 23.2851 31.4341C-0.608922 49.3662 -5.44495 83.2738 12.4779 107.168C30.41 131.062 64.3176 135.898 88.2116 117.966C101.631 107.897 109.586 92.2352 109.835 75.4476C108.959 52.0611 93.1676 62.8776 91.1464 64.3634Z" fill="#ADADAD"/>
<path d="M55.8175 130.453C38.8545 130.453 22.0852 122.756 11.1396 108.174C-7.31856 83.5784 -2.31641 48.5541 22.279 30.096C36.1872 19.6487 53.8055 16.317 70.5932 20.95C78.6225 23.6079 83.034 27.2442 83.8 31.7664C84.8613 38.0422 78.5487 43.432 76.5921 44.9363L67.3723 51.8489C62.7208 55.3467 61.4657 61.7332 64.4651 66.7077C66.1171 69.4487 68.8581 71.3684 71.9868 71.9775C75.1247 72.5866 78.3825 71.839 80.9298 69.9286L90.1404 63.0161C92.1338 61.5579 99.0649 56.9987 104.805 59.7766C108.931 61.7701 111.183 67.0307 111.496 75.3922C111.247 92.8998 103.116 108.875 89.2082 119.313C79.2039 126.826 67.4646 130.453 55.8175 130.453ZM55.6329 22.2513C44.4657 22.2513 33.5108 25.8506 24.2818 32.7724C1.17218 50.123 -3.52542 83.0431 13.8252 106.162C31.1759 129.281 64.0959 133.969 87.2055 116.628C100.283 106.817 107.916 91.8015 108.156 75.4291C107.897 68.5904 106.236 64.1881 103.356 62.7946C99.1387 60.7549 92.8906 65.1757 92.1431 65.7109L82.9509 72.6143C79.6469 75.0969 75.42 76.0752 71.35 75.2722C67.2892 74.4785 63.736 71.9959 61.5949 68.4427C57.7002 61.9916 59.3245 53.7039 65.3603 49.1725L74.5617 42.2691C75.2354 41.7523 81.2805 36.9624 80.496 32.3294C79.9607 29.1731 76.2045 26.349 69.6242 24.1617C65.0004 22.8788 60.2936 22.2513 55.6329 22.2513Z" fill="black"/>
<path d="M22.7127 79.573C22.7127 52.8272 44.3918 31.1481 71.1376 31.1481C74.94 31.1481 78.6316 31.6003 82.1848 32.4309C81.8156 29.0254 78.7793 25.4353 70.1501 22.5743C53.5931 18.0059 36.3809 21.6145 23.2849 31.4434C-0.609166 49.3663 -5.4452 83.2739 12.4776 107.168C25.3799 124.362 46.5514 131.69 66.32 127.758C41.8353 125.34 22.7127 104.695 22.7127 79.573Z" fill="#EBEBEB"/>
<path d="M55.8175 130.453C38.8545 130.453 22.0852 122.756 11.1396 108.174C-7.31856 83.5784 -2.31641 48.5541 22.279 30.096C36.1872 19.6487 53.8055 16.317 70.5932 20.95C78.6225 23.6079 83.034 27.2442 83.8 31.7664C84.8613 38.0422 78.5487 43.432 76.5921 44.9363L67.3723 51.8489C62.7208 55.3467 61.4657 61.7332 64.4651 66.7077C66.1171 69.4487 68.8581 71.3684 71.9868 71.9775C75.1247 72.5866 78.3825 71.839 80.9298 69.9286L90.1404 63.0161C92.1338 61.5579 99.0649 56.9987 104.805 59.7766C108.931 61.7701 111.183 67.0307 111.496 75.3922C111.247 92.8998 103.116 108.875 89.2082 119.313C79.2039 126.826 67.4646 130.453 55.8175 130.453ZM55.6329 22.2513C44.4657 22.2513 33.5108 25.8506 24.2818 32.7724C1.17218 50.123 -3.52542 83.0431 13.8252 106.162C31.1759 129.281 64.0959 133.969 87.2055 116.628C100.283 106.817 107.916 91.8015 108.156 75.4291C107.897 68.5904 106.236 64.1881 103.356 62.7946C99.1387 60.7549 92.8906 65.1757 92.1431 65.7109L82.9509 72.6143C79.6469 75.0969 75.42 76.0752 71.35 75.2722C67.2892 74.4785 63.736 71.9959 61.5949 68.4427C57.7002 61.9916 59.3245 53.7039 65.3603 49.1725L74.5617 42.2691C75.2354 41.7523 81.2805 36.9624 80.496 32.3294C79.9607 29.1731 76.2045 26.349 69.6242 24.1617C65.0004 22.8788 60.2936 22.2513 55.6329 22.2513Z" fill="black"/>
<path d="M20.304 81.8434C24.4109 79.2224 29.8745 80.4314 32.4956 84.5383C35.1166 88.6452 33.9076 94.1088 29.8007 96.7299C25.6938 99.3509 20.2302 98.1419 17.6091 94.035C14.9881 89.9188 16.1878 84.4645 20.304 81.8434Z" fill="#ADADAD"/>
<path d="M25.0661 99.7847C21.596 99.7847 18.1905 98.068 16.197 94.9302C13.0868 90.048 14.5173 83.5415 19.4087 80.4313C24.2909 77.3211 30.7974 78.7608 33.9076 83.643C37.0178 88.5252 35.5873 95.0317 30.6959 98.1511C28.9516 99.2586 26.995 99.7847 25.0661 99.7847ZM21.1992 83.2554C17.8767 85.3781 16.8984 89.808 19.0211 93.1305C21.1346 96.453 25.5645 97.4405 28.8962 95.3178C32.2187 93.1951 33.197 88.7652 31.0835 85.4427C28.9608 82.111 24.5309 81.1419 21.1992 83.2554Z" fill="black"/>
<path d="M21.956 46.7544C26.063 44.1334 31.5266 45.3424 34.1476 49.4493C36.7687 53.5562 35.5597 59.0198 31.4527 61.6409C27.3458 64.262 21.8822 63.0529 19.2611 58.946C16.6401 54.8298 17.8491 49.3755 21.956 46.7544Z" fill="#ADADAD"/>
<path d="M26.7182 64.6957C23.2481 64.6957 19.8426 62.9791 17.8491 59.8412C14.7389 54.9591 16.1694 48.4526 21.0608 45.3424C25.943 42.223 32.4495 43.6719 35.5597 48.5541C37.064 50.9167 37.5624 53.7316 36.9625 56.4726C36.3534 59.2137 34.7198 61.5486 32.3572 63.0622C30.6037 64.1697 28.6471 64.6957 26.7182 64.6957ZM22.8513 48.1665C19.5288 50.2892 18.5505 54.7191 20.6732 58.0416C22.7959 61.364 27.2166 62.3423 30.5483 60.2289C32.1542 59.2044 33.2709 57.6078 33.6862 55.7435C34.1015 53.8793 33.76 51.9596 32.7356 50.3538C30.6129 47.0221 26.183 46.053 22.8513 48.1665Z" fill="black"/>
<path d="M53.4548 30.5297C56.7403 28.4347 61.1057 29.4037 63.2007 32.6893C65.2957 35.9748 64.3266 40.3402 61.0503 42.4352C57.7648 44.5302 53.3994 43.5611 51.3044 40.2756C49.2002 36.99 50.1692 32.6247 53.4548 30.5297Z" fill="#CA4D4C"/>
<path d="M57.2663 45.2039C54.3776 45.2039 51.5536 43.7734 49.8923 41.1708C48.6372 39.205 48.2219 36.8701 48.7295 34.5905C49.2371 32.3109 50.5937 30.3728 52.5595 29.1177C56.6203 26.5243 62.0285 27.7241 64.6219 31.7849C67.2153 35.8456 66.0155 41.2539 61.9547 43.8472C60.4873 44.7702 58.863 45.2039 57.2663 45.2039ZM57.2387 31.1019C56.2511 31.1019 55.2452 31.3696 54.35 31.9418C53.1409 32.717 52.3011 33.9168 51.9873 35.3196C51.6735 36.7224 51.9319 38.1621 52.7072 39.3712C54.3038 41.8722 57.6355 42.6106 60.1366 41.0139C62.6377 39.4173 63.376 36.0856 61.7794 33.5845C60.7549 31.9787 59.0199 31.1019 57.2387 31.1019Z" fill="black"/>
<path d="M49.5232 101.741C53.6301 99.1202 59.0937 100.329 61.7148 104.436C64.3358 108.543 63.1268 114.007 59.0199 116.628C54.9129 119.249 49.4493 118.04 46.8283 113.933C44.2072 109.817 45.4162 104.362 49.5232 101.741Z" fill="#ADADAD"/>
<path d="M54.2854 119.683C50.8153 119.683 47.4098 117.966 45.4071 114.828C43.9027 112.456 43.4044 109.651 44.0043 106.91C44.6134 104.169 46.2469 101.834 48.6096 100.32C53.4917 97.2098 59.9982 98.6495 63.1084 103.532C66.2186 108.414 64.7789 114.92 59.8967 118.04C58.1709 119.147 56.2143 119.683 54.2854 119.683ZM50.4277 103.153C48.8126 104.178 47.7051 105.774 47.2898 107.639C46.8745 109.503 47.216 111.413 48.2404 113.028C50.3631 116.351 54.793 117.338 58.1155 115.216C61.438 113.093 62.4255 108.663 60.3028 105.341C58.1801 102.009 53.7502 101.031 50.4277 103.153Z" fill="black"/>
<path d="M67.9446 146.068L64.2622 145.118L86.9934 51.775L93.2322 53.3901L67.9446 146.068Z" fill="#ADADAD"/>
<path d="M86.9933 51.7751L93.2322 53.3809L67.9445 146.059L64.2621 145.109L86.9933 51.7751ZM86.9933 48.4249C86.3934 48.4249 85.7935 48.5911 85.2675 48.9048C84.5015 49.3663 83.9477 50.1138 83.7354 50.9906L61.0043 144.324C60.5705 146.105 61.6503 147.905 63.4223 148.366L67.1047 149.317C67.3815 149.391 67.6676 149.428 67.9445 149.428C69.4212 149.428 70.7686 148.45 71.1747 146.954L96.4623 54.2762C96.7023 53.4086 96.5823 52.4857 96.1301 51.7105C95.6779 50.9352 94.9395 50.3723 94.072 50.1508L87.8331 48.5449C87.5563 48.4618 87.2702 48.4249 86.9933 48.4249Z" fill="black"/>
<path d="M97.7727 27.7887L95.4193 27.1796L86.9932 51.775L93.232 53.3901L97.7727 27.7887Z" fill="#EBEBEB"/>
<path d="M95.4193 27.1796L97.7727 27.7887L93.2413 53.3902L87.0024 51.7843L95.4193 27.1796ZM95.4193 23.8295C94.0165 23.8295 92.7244 24.7155 92.2445 26.0998L83.8184 50.6953C83.5138 51.5813 83.5969 52.5503 84.0399 53.3717C84.4829 54.1931 85.2489 54.793 86.1533 55.0237L92.3922 56.6296C92.6691 56.7034 92.9459 56.7403 93.232 56.7403C93.8688 56.7403 94.4964 56.5557 95.0502 56.205C95.8346 55.6974 96.3792 54.8853 96.536 53.9716L101.068 28.3702C101.372 26.6443 100.302 24.9739 98.6034 24.5401L96.25 23.931C95.9731 23.8572 95.6962 23.8295 95.4193 23.8295Z" fill="black"/>
<path d="M101.991 3.3501C101.834 8.61066 99.222 10.2996 95.8441 16.0954C92.4755 21.8913 95.4103 27.1795 95.4103 27.1795L97.7638 27.7887C106.587 20.793 101.991 3.3501 101.991 3.3501Z" fill="#ADADAD"/>
<path d="M101.991 3.35015C101.991 3.35015 106.587 20.7931 97.7729 27.7795L95.4195 27.1704C95.4195 27.1704 92.4846 21.8821 95.8532 16.0863C99.2218 10.2996 101.834 8.61995 101.991 3.35015ZM101.991 0C101.861 0 101.732 0.00922906 101.603 0.0184581C99.9509 0.212268 98.6866 1.5874 98.6312 3.24863C98.5481 5.96198 97.699 7.2079 95.8255 9.92124C94.9672 11.1672 93.9982 12.5792 92.9368 14.4066C88.6546 21.7621 92.3185 28.5178 92.4754 28.8039C92.9184 29.6068 93.6752 30.1883 94.5704 30.419L96.9238 31.0281C97.2007 31.1019 97.4775 31.1389 97.7636 31.1389C98.5112 31.1389 99.2495 30.8897 99.8494 30.4098C110.269 22.1498 105.442 3.29478 105.23 2.49185C104.842 1.0152 103.495 0 101.991 0Z" fill="black"/>
<path d="M61.4565 146.65L57.9402 145.192L93.5459 55.9558L99.4987 58.4292L61.4565 146.65Z" fill="#ADADAD"/>
<path d="M93.5459 55.9559L99.4986 58.4293L61.4564 146.65L57.9401 145.192L93.5459 55.9559ZM93.5459 52.6057C93.1029 52.6057 92.6599 52.698 92.2446 52.8734C91.4139 53.2241 90.7679 53.8886 90.4357 54.7192L54.8299 143.946C54.147 145.653 54.9684 147.582 56.6573 148.283L60.1736 149.742C60.5889 149.917 61.0319 150 61.4564 150C62.7577 150 63.9944 149.243 64.5389 147.97L102.572 59.749C102.923 58.9276 102.941 57.9955 102.6 57.1649C102.258 56.3343 101.603 55.6698 100.781 55.3283L94.8287 52.8549C94.4134 52.6888 93.9796 52.6057 93.5459 52.6057Z" fill="black"/>
<path d="M107.574 33.7138L105.331 32.7816L93.5459 55.9558L99.4986 58.4292L107.574 33.7138Z" fill="#EBEBEB"/>
<path d="M105.331 32.7817L107.574 33.7138L99.4893 58.4292L93.5366 55.9559L105.331 32.7817ZM105.331 29.4315C104.104 29.4315 102.932 30.1052 102.341 31.2681L90.5556 54.4423C90.1311 55.2729 90.0757 56.2512 90.3987 57.1187C90.7217 57.9955 91.3954 58.6969 92.263 59.0568L98.2157 61.5302C98.631 61.7056 99.0648 61.7886 99.4986 61.7886C99.9785 61.7886 100.458 61.6871 100.901 61.4841C101.75 61.0964 102.396 60.3673 102.692 59.4814L110.776 34.7659C111.321 33.1047 110.49 31.2958 108.875 30.6313L106.633 29.6992C106.199 29.5146 105.765 29.4315 105.331 29.4315Z" fill="black"/>
<path d="M115.188 10.1151C114.293 15.3018 111.469 16.6031 107.316 21.8729C103.172 27.1335 105.331 32.7817 105.331 32.7817L107.574 33.7138C117.292 28.0287 115.188 10.1151 115.188 10.1151Z" fill="#ADADAD"/>
<path d="M115.188 10.1151C115.188 10.1151 117.292 28.0287 107.583 33.7138L105.341 32.7817C105.341 32.7817 103.172 27.1335 107.325 21.8729C111.459 16.6124 114.293 15.3019 115.188 10.1151ZM115.179 6.76497C113.554 6.76497 112.152 7.93706 111.875 9.55214C111.413 12.2286 110.398 13.3361 108.165 15.7633C107.14 16.88 105.987 18.1352 104.676 19.7964C99.4063 26.4783 102.083 33.6769 102.203 33.9815C102.535 34.8398 103.199 35.5227 104.048 35.8734L106.291 36.8056C106.706 36.9809 107.14 37.064 107.574 37.064C108.165 37.064 108.746 36.9071 109.272 36.6025C120.744 29.8838 118.612 10.5397 118.52 9.71827C118.326 8.06626 116.941 6.80188 115.28 6.75574C115.243 6.76497 115.216 6.76497 115.179 6.76497Z" fill="black"/>
</g>
<defs>
<clipPath id="clip0">
<rect width="118.732" height="150" fill="white"/>
</clipPath>
</defs>
</svg>
