<svg width="119" height="150" viewBox="0 0 119 150" fill="none" xmlns="http://www.w3.org/2000/svg">
<g clip-path="url(#clip0)">
<path d="M83.7677 60.1226C86.2094 60.6405 88.6299 60.9365 90.9765 60.9365C93.6613 60.9365 96.2509 60.5982 98.7138 59.9112C105.394 58.0508 110.753 53.7065 114.209 47.3433C117.317 41.6249 119.716 33.2323 117.095 26.8162C115.615 23.1801 112.677 20.601 108.607 19.3432C104.982 18.2333 100.648 18.3073 96.4835 19.3749C96.9274 12.8215 96.7477 8.3186 96.7477 8.3186H63.5365H63.1349H29.9342C29.9342 8.3186 29.7546 12.8215 30.1985 19.3749C26.0339 18.3179 21.7002 18.2333 18.0746 19.3432C14.0051 20.5905 11.0667 23.1801 9.58685 26.8162C6.97604 33.2323 9.36487 41.6249 12.4725 47.3433C15.9289 53.696 21.2879 58.0508 27.9682 59.9112C30.431 60.5982 33.0207 60.9365 35.7055 60.9365C38.0521 60.9365 40.4726 60.6405 42.9143 60.1226C46.8147 64.7734 51.8777 68.1241 58.4418 69.1283V69.1388C57.8498 91.9174 46.6138 101.769 46.6138 101.769H41.3077V106.567H24.6386C23.2434 106.567 22.1124 107.698 22.1124 109.094V139.144V144.197H15.5484V150.011H111.514V144.197H104.696V139.144V109.094C104.696 107.698 103.565 106.567 102.17 106.567H85.258V101.769H80.0576C80.0576 101.769 68.7687 91.9174 68.1979 69.1494V69.1388C74.7831 68.1347 79.8673 64.784 83.7677 60.1226ZM106.747 25.3893C109.009 26.0869 110.478 27.3342 111.25 29.2051C112.92 33.2957 111.155 39.7434 108.66 44.3309C104.443 52.0787 96.8534 55.6303 87.668 54.4464C92.4774 45.9164 94.7605 35.1772 95.8387 26.2137C99.5276 24.8291 103.639 24.4274 106.747 25.3893ZM18.0112 44.3309C15.5167 39.754 13.7515 33.2957 15.4215 29.2051C16.1826 27.3342 17.6624 26.0763 19.9244 25.3893C23.032 24.438 27.1543 24.8291 30.8327 26.2137C31.9109 35.1772 34.194 45.9164 39.0034 54.4464C29.818 55.6197 22.2181 52.0682 18.0112 44.3309Z" fill="#EBEBEB"/>
<path d="M77.637 54.1294C80.0787 54.6473 82.4993 54.9433 84.8458 54.9433C87.5306 54.9433 90.1203 54.605 92.5831 53.918C99.2634 52.0577 104.622 47.7134 108.079 41.3502C111.186 35.6318 113.586 27.2391 110.965 20.8231C109.485 17.187 106.546 14.6079 102.477 13.35C98.8512 12.2402 94.5175 12.3142 90.3529 13.3817C90.7968 6.82829 90.6171 2.32544 90.6171 2.32544H57.4059H57.0042H23.8036C23.8036 2.32544 23.6239 6.82829 24.0679 13.3817C19.9033 12.3247 15.5695 12.2402 11.944 13.35C7.87452 14.5973 4.93604 17.187 3.45623 20.8231C0.845421 27.2391 3.23426 35.6318 6.34186 41.3502C9.79828 47.7028 15.1573 52.0577 21.8376 53.918C24.3004 54.605 26.8901 54.9433 29.5749 54.9433C31.9215 54.9433 34.342 54.6473 36.7837 54.1294C40.684 58.7802 45.7471 62.1309 52.3111 63.1351V63.1457C51.7192 85.9242 40.4832 95.7755 40.4832 95.7755H35.177V100.574H18.5186C17.1233 100.574 15.9923 101.705 15.9923 103.101V133.151V138.204H9.41776V144.017H105.384V138.204H98.5658V133.151V103.101C98.5658 101.705 97.4348 100.574 96.0396 100.574H79.1274V95.7755H73.927C73.927 95.7755 62.6381 85.9242 62.0673 63.1562V63.1457C68.6525 62.1521 73.7367 58.7908 77.637 54.1294ZM100.616 19.3961C102.878 20.0937 104.348 21.341 105.119 23.2119C106.789 27.3025 105.024 33.7503 102.53 38.3377C98.3121 46.0856 90.7228 49.6371 81.5374 48.4533C86.3468 39.9232 88.6299 29.184 89.7081 20.2206C93.397 18.8359 97.5088 18.4448 100.616 19.3961ZM11.8806 38.3377C9.38604 33.7609 7.62084 27.3025 9.29091 23.2119C10.052 21.341 11.5318 20.0832 13.7938 19.3961C16.9014 18.4448 21.0237 18.8359 24.7021 20.2206C25.7802 29.184 28.0634 39.9232 32.8728 48.4533C23.6874 49.6371 16.0875 46.0856 11.8806 38.3377Z" fill="#ADADAD"/>
<path d="M91.5791 54.1611C91.9173 54.0765 92.2556 54.0131 92.5833 53.9179C99.2635 52.0576 104.623 47.7133 108.079 41.3501C110.5 36.9107 112.466 30.854 112.011 25.3682C110.309 37.9677 102.456 48.6118 91.5791 54.1611Z" fill="#EBEBEB"/>
<path d="M98.5764 133.162V103.101C98.5764 101.705 97.4454 100.574 96.0501 100.574H79.1274V95.7754H73.927C73.927 95.7754 62.6381 85.9241 62.0673 63.1562V63.1456C66.475 62.4797 71.9398 60.5031 75.1002 58.0403C52.9031 62.7968 34.49 55.7465 37.4919 2.36765L23.8036 2.33594C23.8036 2.33594 23.6239 6.83879 24.0679 13.3922C19.9033 12.3352 15.5695 12.2507 11.944 13.3605C7.87452 14.6078 4.93604 17.1975 3.45623 20.8336C0.845421 27.2496 3.23426 35.6423 6.34186 41.3607C9.79828 47.7133 15.1573 52.0682 21.8376 53.9285C24.3004 54.6156 26.8901 54.9538 29.5749 54.9538C31.9215 54.9538 34.342 54.6578 36.7837 54.1399C40.684 58.7907 45.7471 62.1414 52.3111 63.1456V63.1562C51.7192 85.9241 40.4832 95.7754 40.4832 95.7754H35.177V100.574H18.5186C17.1233 100.574 15.9923 101.705 15.9923 103.101V133.151V138.204H9.41776V144.017H105.384V138.204H98.5658V133.162H98.5764ZM11.8806 38.3376C9.38604 33.7608 7.62084 27.3025 9.29091 23.2118C10.052 21.3409 11.5318 20.0831 13.7938 19.396C16.9014 18.4447 21.0237 18.8358 24.7021 20.2205C25.7802 29.1839 28.0634 39.9231 32.8728 48.4532C23.6874 49.637 16.0875 46.0855 11.8806 38.3376Z" fill="#EBEBEB"/>
<path d="M99.4114 100.521H15.6436V144.451H99.4114V100.521Z" fill="#ADADAD"/>
<path d="M106.187 136.967H7.53638V144.546H106.187V136.967Z" fill="#ADADAD"/>
<path d="M90.6067 2.33599C90.6067 2.33599 90.7864 6.83884 90.3425 13.3923C92.4776 12.8426 94.6551 12.5573 96.7691 12.5573C98.7668 12.5573 100.712 12.8109 102.477 13.3606C106.546 14.6079 109.485 17.1975 110.965 20.8336C113.576 27.2497 111.187 35.6423 108.079 41.3607C104.623 47.7133 99.2636 52.0682 92.5833 53.9285C90.1205 54.6156 87.5308 54.9538 84.846 54.9538C82.4995 54.9538 80.0789 54.6579 77.6372 54.1399C73.7263 58.8013 68.6527 62.1626 62.0569 63.1562V63.1668C62.6277 85.9347 73.9166 95.7861 73.9166 95.7861H79.117V100.585H96.0397C97.435 100.585 98.566 101.716 98.566 103.111V133.162V138.214H105.384V144.028H9.41793V138.214H15.9819V133.162V103.101C15.9819 101.705 17.1129 100.574 18.5082 100.574H35.1772V95.7755H40.4834C40.4834 95.7755 51.7194 85.9242 52.2902 63.1562V63.1457C45.7262 62.1309 40.6631 58.7802 36.7627 54.1399C34.321 54.6579 31.9005 54.9538 29.5539 54.9538C26.8691 54.9538 24.2795 54.6156 21.8166 53.9285C15.1363 52.0682 9.77731 47.7239 6.32089 41.3607C3.21329 35.6423 0.813882 27.2497 3.43526 20.8336C4.91507 17.1975 7.85356 14.6184 11.923 13.3606C13.6882 12.8215 15.6226 12.5573 17.6309 12.5573C19.7343 12.5573 21.9223 12.8426 24.0575 13.3923C23.6135 6.83884 23.7932 2.33599 23.7932 2.33599H56.9939H57.3955H90.6067ZM84.9306 48.6752C92.5833 48.6752 98.8514 45.1131 102.53 38.3377C105.024 33.7608 106.79 27.3025 105.119 23.2119C104.358 21.341 102.879 20.0832 100.617 19.3961C99.4644 19.0367 98.1643 18.8782 96.8008 18.8782C94.5071 18.8782 92.0125 19.3538 89.6977 20.2206C88.6195 29.184 86.3364 39.9232 81.527 48.4532C82.7003 48.6012 83.8313 48.6752 84.9306 48.6752ZM29.4799 48.6752C30.5792 48.6752 31.7102 48.6012 32.8729 48.4532C28.0635 39.9232 25.7804 29.184 24.7023 20.2206C22.3874 19.3538 19.9034 18.8782 17.5992 18.8782C16.2356 18.8782 14.9461 19.0473 13.7834 19.3961C11.5214 20.0937 10.0521 21.341 9.28052 23.2119C7.61044 27.3025 9.37565 33.7503 11.8702 38.3377C15.5591 45.1025 21.8272 48.6752 29.4799 48.6752ZM92.8476 0H90.5961H57.4061H57.0044H23.8038H21.5524L21.4678 2.24086C21.4572 2.39941 21.341 5.59157 21.563 10.5067C20.2417 10.3164 18.931 10.2213 17.6415 10.2213C15.3583 10.2213 13.202 10.5278 11.2466 11.1303C6.47944 12.5995 3.0336 15.6437 1.27897 19.9563C-1.64895 27.1228 0.909013 36.2871 4.28087 42.4811C8.05439 49.4045 13.8996 54.1505 21.2036 56.18C23.8461 56.9199 26.6683 57.2898 29.5645 57.2898C31.5622 57.2898 33.6868 57.089 35.896 56.6873C39.8386 61.0105 44.5317 63.8116 49.8802 65.0588C48.9395 82.2881 41.6567 91.1881 39.5321 93.4395H35.1878H32.8518V95.7755V98.2383H18.5188C15.834 98.2383 13.6565 100.416 13.6565 103.101V133.151V135.868H9.4285H7.08194V138.204V144.017V146.353H9.41793H105.384H107.72V144.017V138.204V135.868H105.384H100.902V133.151V103.101C100.902 100.416 98.7245 98.2383 96.0397 98.2383H81.453V95.7755V93.4395H79.117H74.8784C72.7644 91.1775 65.4288 82.1824 64.4775 65.0694C69.8471 63.8327 74.5613 61.0211 78.5145 56.6873C80.7237 57.089 82.8483 57.2898 84.846 57.2898C87.7422 57.2898 90.5539 56.9199 93.207 56.18C100.511 54.1399 106.356 49.4045 110.13 42.4811C113.491 36.2871 116.049 27.1228 113.132 19.9563C111.377 15.6543 107.931 12.5995 103.164 11.1303C101.209 10.5278 99.0628 10.2213 96.7691 10.2213C95.4795 10.2213 94.1688 10.3164 92.8476 10.5067C93.0695 5.59157 92.9427 2.39941 92.9427 2.24086L92.8476 0ZM91.8434 21.9646C93.5135 21.4678 95.2364 21.2036 96.8113 21.2036C97.9741 21.2036 99.0311 21.341 99.9401 21.6264C101.98 22.25 102.625 23.2753 102.963 24.0892C104.274 27.3025 102.709 33.1266 100.49 37.2067C97.2976 43.0731 92.0337 46.223 85.2688 46.3181C88.3659 39.7224 90.575 31.5517 91.8434 21.9646ZM29.1523 46.3287C22.3874 46.2335 17.1235 43.0836 13.9314 37.2172C11.7116 33.1266 10.1473 27.3131 11.458 24.0998C11.7962 23.2859 12.441 22.2606 14.481 21.637C15.39 21.3621 16.4365 21.2141 17.6097 21.2141C19.1741 21.2141 20.897 21.4784 22.5777 21.9752C23.8249 31.5517 26.0341 39.7224 29.1523 46.3287Z" fill="black"/>
<path d="M87.2666 98.2911H30.9175V100.627H87.2666V98.2911Z" fill="black"/>
<path d="M87.256 107.202H27.2708V128.342H87.256V107.202Z" fill="#EBEBEB"/>
<path d="M89 130.287H25.8015V105.468H89V130.287ZM28.1375 127.951H86.664V107.815H28.1375V127.951Z" fill="black"/>
</g>
<defs>
<clipPath id="clip0">
<rect width="118.216" height="150" fill="white"/>
</clipPath>
</defs>
</svg>
