<svg width="149" height="150" viewBox="0 0 149 150" fill="none" >
<path d="M81.4853 150C118.433 150 148.384 120.048 148.384 83.1011C148.384 46.1539 118.433 16.2023 81.4853 16.2023C44.5381 16.2023 14.5864 46.1539 14.5864 83.1011C14.5864 120.048 44.5381 150 81.4853 150Z" fill="#EBEBEB"/>
<path d="M74.6766 142.545C110.47 142.545 139.486 113.529 139.486 77.7362C139.486 41.9432 110.47 12.9272 74.6766 12.9272C38.8836 12.9272 9.86768 41.9432 9.86768 77.7362C9.86768 113.529 38.8836 142.545 74.6766 142.545Z" fill="#ADADAD"/>
<path d="M37.9739 97.1487C37.9739 61.297 67.028 32.2428 102.88 32.2428C110.302 32.2428 117.423 33.5032 124.059 35.7978C112.177 21.804 94.4662 12.9272 74.6767 12.9272C38.8788 12.9272 9.85693 41.9383 9.85693 77.7362C9.85693 106.004 27.9552 130.027 53.185 138.882C43.705 127.603 37.9739 113.049 37.9739 97.1487Z" fill="#EBEBEB"/>
<path d="M74.6661 143.827C38.2218 143.827 8.5752 114.181 8.5752 77.7363C8.5752 41.292 38.2218 11.6454 74.6661 11.6454C111.11 11.6454 140.757 41.292 140.757 77.7363C140.757 114.181 111.11 143.827 74.6661 143.827ZM74.6661 14.1985C39.6331 14.1985 11.1283 42.7033 11.1283 77.7363C11.1283 112.769 39.6331 141.274 74.6661 141.274C109.699 141.274 138.204 112.769 138.204 77.7363C138.204 42.7033 109.699 14.1985 74.6661 14.1985Z" fill="black"/>
<path d="M98.5923 88.1319C97.752 87.4425 96.5347 87.464 95.6729 88.0781L92.0856 66.6187C92.5811 66.0154 93.012 65.5091 93.346 65.1213C100.618 57.0094 104.054 44.653 104.765 41.8306C104.819 41.6043 104.582 41.432 104.388 41.5505C101.943 43.0371 91.353 49.7593 84.8786 58.6038C84.5123 59.0131 84.1245 59.4764 83.6936 59.9719L77.7901 60.155L62.2127 60.6506C62.6544 59.681 62.4281 58.4745 61.5986 57.785L60.5106 56.8909C59.4656 56.0398 57.9359 56.1907 57.0741 57.2248L54.2193 60.7045C54.1654 60.7691 54.1331 60.8337 54.09 60.8984L38.2002 61.3939C37.8124 61.4047 37.4461 61.5878 37.1983 61.8895L34.4836 65.1967C34.1712 65.5737 34.0958 66.0908 34.2681 66.5541C34.3543 66.7695 34.4944 66.9634 34.6667 67.1035C34.8606 67.2543 35.0869 67.362 35.3454 67.3943C49.8132 69.3873 61.2323 71.962 71.1217 75.4739C71.111 75.4955 71.1002 75.5062 71.0787 75.5278C65.8646 81.9699 60.1228 89.7909 55.749 96.4377C55.749 96.4485 55.7382 96.4485 55.7382 96.4593L39.6868 97.5581C39.3098 97.5796 38.965 97.7628 38.728 98.0536L36.595 100.65C36.3042 101.005 36.218 101.469 36.3473 101.91C36.4765 102.341 45.3533 105.444 49.5762 108.546C50.0825 108.945 50.8582 109.591 51.0521 109.764C54.1331 112.565 59.9827 121.495 60.252 121.517C60.7045 121.56 61.1462 121.377 61.437 121.032L63.57 118.436C63.807 118.145 63.9148 117.768 63.8717 117.402L61.8249 101.652C61.8572 101.619 61.9003 101.587 61.9326 101.544C67.793 95.8883 74.1812 88.9076 79.4599 82.4008C84.8032 91.3745 89.5324 102.029 94.294 115.753C94.3802 115.99 94.5202 116.206 94.7141 116.357C94.8865 116.497 95.1019 116.604 95.3389 116.647C95.8237 116.734 96.3085 116.55 96.6209 116.173L99.3356 112.866C99.5834 112.565 99.6911 112.166 99.6265 111.789L97.0087 96.093C97.0626 96.0391 97.1164 95.996 97.1703 95.9314L100.025 92.4518C100.876 91.4068 100.725 89.8771 99.6911 89.0153L98.5923 88.1319Z" fill="#EBEBEB"/>
<path d="M60.4028 122.799C60.3167 122.799 60.2197 122.799 60.1335 122.788C59.4656 122.723 59.4656 122.723 57.4834 119.944C55.5012 117.165 52.1832 112.511 50.201 110.712C50.0071 110.539 49.2638 109.925 48.7898 109.548C46.2043 107.652 41.4643 105.627 38.6419 104.41C35.7332 103.16 35.3562 102.998 35.1299 102.287C34.8714 101.436 35.0438 100.521 35.6039 99.842L37.7369 97.2457C38.2002 96.6855 38.8681 96.3408 39.5899 96.2869L55.0057 95.2312C59.0239 89.1769 64.1518 82.1423 68.978 76.0988C59.5518 72.91 48.7467 70.54 35.1623 68.6763C34.6775 68.6117 34.225 68.407 33.848 68.1054C33.5032 67.8253 33.2339 67.459 33.0723 67.0389C32.7276 66.1447 32.8784 65.1429 33.4817 64.4103L36.1964 61.0923C36.6812 60.5106 37.3922 60.1551 38.1463 60.1335L53.4221 59.6595L56.0614 56.4385C57.3649 54.8549 59.7134 54.6287 61.297 55.9214L62.385 56.8155C63.1607 57.4511 63.6131 58.3668 63.6885 59.3364L83.0795 58.7331C83.3704 58.3883 83.6505 58.0759 83.909 57.7743C90.3511 48.9837 100.693 42.3154 103.72 40.484C104.248 40.1608 104.916 40.1932 105.422 40.5594C105.929 40.9257 106.155 41.5613 106.004 42.1646C105.11 45.6873 101.63 57.8174 94.2832 65.9939C94.0462 66.2632 93.7553 66.608 93.4321 67.0066L96.664 86.376C97.6335 86.2575 98.6138 86.5268 99.3895 87.1516L100.478 88.0458C101.242 88.6706 101.727 89.5647 101.824 90.5558C101.921 91.5469 101.63 92.5165 101.005 93.2813L98.3661 96.4916L100.887 111.574C101.016 112.328 100.811 113.092 100.327 113.674L97.612 116.981C97.0087 117.714 96.0607 118.069 95.1127 117.908C94.6602 117.822 94.2401 117.628 93.8954 117.348C93.5183 117.035 93.2382 116.637 93.0766 116.173C88.6059 103.289 84.1999 93.2059 79.2767 84.6308C74.3105 90.6312 68.5363 96.9118 63.1714 102.126L65.1321 117.24C65.229 117.962 65.0136 118.694 64.5611 119.254L62.4281 121.851C61.9326 122.454 61.1893 122.799 60.4028 122.799ZM37.7693 101.242C38.2756 101.469 38.9866 101.781 39.6437 102.061C42.7678 103.397 47.4755 105.411 50.3411 107.512C50.912 107.965 51.7308 108.633 51.9247 108.826C54.1008 110.809 57.3865 115.409 59.5626 118.457C59.9504 118.996 60.3382 119.545 60.6398 119.955L62.5897 117.617L60.4783 101.189L60.9199 100.747C66.8665 95.005 73.2117 88.0673 78.4688 81.5929L79.6215 80.1709L80.5587 81.7437C85.9558 90.8036 90.6959 101.479 95.5005 115.333L98.3445 112.048L95.6406 95.6621L96.1038 95.1989L99.034 91.6547C99.2279 91.4177 99.3248 91.116 99.2925 90.8036C99.2602 90.4912 99.1094 90.2111 98.8724 90.0172L97.7843 89.1231C97.4181 88.8214 96.8363 88.8214 96.4162 89.1231L94.7572 90.3081L90.739 66.2632L91.1052 65.8108C91.6115 65.1967 92.0425 64.6796 92.3872 64.281C98.086 57.9251 101.404 48.7575 102.815 44.0821C98.7862 46.7538 90.9975 52.431 85.9128 59.3579C85.4818 59.8534 85.094 60.3059 84.6739 60.8014L84.3076 61.2324L60.1982 61.9865L61.0384 60.1228C61.2539 59.6488 61.1462 59.0778 60.7799 58.7762L59.6918 57.882C59.1963 57.4727 58.4637 57.5481 58.0544 58.0436L54.8441 62.0942L54.1331 62.1804L38.2433 62.6759L35.4747 66.0155C50.1041 68.1485 61.5555 70.7339 71.5527 74.2782L73.244 74.8815L72.1236 76.2819C66.8773 82.7563 61.1785 90.5343 56.8155 97.1488L56.4923 97.8059L55.8244 97.7413L39.773 98.8401L37.7693 101.242ZM105.067 42.6493C105.067 42.6493 105.067 42.6601 105.067 42.6493C105.067 42.6601 105.067 42.6493 105.067 42.6493Z" fill="black"/>
<path d="M40.2898 118.673C39.8912 118.673 39.5034 118.49 39.2556 118.145C38.8355 117.574 38.9648 116.777 39.5357 116.357C40.5053 115.656 41.4533 114.924 42.3582 114.17C42.8968 113.728 43.7048 113.793 44.1573 114.342C44.6097 114.892 44.5235 115.689 43.9849 116.141C43.0369 116.917 42.0458 117.682 41.0332 118.414C40.8177 118.587 40.5484 118.673 40.2898 118.673Z" fill="black"/>
<path d="M13.2396 129.779C12.5609 129.779 12.0008 129.241 11.9684 128.562C11.9361 127.851 12.4855 127.259 13.1858 127.226C15.2757 127.129 17.6241 126.72 20.1773 126.009C20.856 125.826 21.567 126.214 21.7501 126.892C21.944 127.571 21.5454 128.282 20.8668 128.465C18.1305 129.23 15.5881 129.672 13.3043 129.779C13.2827 129.779 13.2612 129.779 13.2396 129.779ZM6.07574 128.39C5.84951 128.39 5.62328 128.336 5.4186 128.207C5.09542 128.013 4.78301 127.797 4.49214 127.571C2.70386 126.149 1.42191 124.124 0.689357 121.56C0.495447 120.881 0.89404 120.17 1.57272 119.987C2.24064 119.793 2.96241 120.192 3.14555 120.87C3.72728 122.917 4.71837 124.501 6.07574 125.578C6.28042 125.74 6.49588 125.89 6.72211 126.031C7.32538 126.397 7.51929 127.183 7.16379 127.787C6.93756 128.174 6.51742 128.39 6.07574 128.39ZM27.4705 126.009C26.9749 126.009 26.5117 125.718 26.2962 125.244C26.0161 124.598 26.307 123.844 26.9534 123.564C29.1187 122.616 31.3056 121.528 33.4386 120.299C34.0526 119.955 34.8283 120.159 35.1838 120.773C35.5393 121.387 35.3238 122.163 34.7098 122.519C32.5013 123.79 30.2391 124.921 27.9768 125.901C27.8152 125.977 27.6428 126.009 27.4705 126.009ZM1.28186 115.15C1.26031 115.15 1.23877 115.15 1.21722 115.15C0.516993 115.118 -0.0324182 114.514 0.0106729 113.803C0.129173 111.552 0.473902 109.02 1.03409 106.284C1.17413 105.595 1.84204 105.153 2.54227 105.293C3.23173 105.433 3.68419 106.112 3.53337 106.801C3.0055 109.408 2.67155 111.81 2.56382 113.933C2.52073 114.622 1.96054 115.15 1.28186 115.15ZM4.09355 100.661C3.97505 100.661 3.84578 100.639 3.72728 100.607C3.04859 100.402 2.67155 99.6911 2.86546 99.0124C3.53337 96.7825 4.31978 94.3909 5.22469 91.924C5.46169 91.2668 6.19424 90.9221 6.86215 91.1591C7.53006 91.3961 7.86402 92.1286 7.62702 92.7966C6.74365 95.2204 5.96801 97.5581 5.32165 99.745C5.14928 100.305 4.64296 100.661 4.09355 100.661Z" fill="black"/>
<path d="M9.11372 86.7207C8.95213 86.7207 8.79054 86.6884 8.62894 86.6238C7.97181 86.3545 7.6594 85.6112 7.92871 84.954C8.39194 83.8229 8.87672 82.6917 9.36149 81.5606C9.64158 80.9142 10.3957 80.6126 11.042 80.8927C11.6884 81.1728 11.99 81.9269 11.71 82.5732C11.2252 83.6936 10.7512 84.8032 10.288 85.9236C10.094 86.4191 9.62004 86.7207 9.11372 86.7207Z" fill="black"/>
<path d="M75.3555 13.9722C74.9461 13.9722 74.5583 13.7783 74.3105 13.4228C73.9119 12.8411 74.0519 12.0439 74.6229 11.6453C75.6248 10.9451 76.6697 10.2664 77.7362 9.60925C78.3395 9.24298 79.1259 9.42611 79.4922 10.0294C79.8585 10.6327 79.6753 11.4191 79.0721 11.7853C78.0487 12.4209 77.0468 13.0673 76.088 13.746C75.8618 13.8968 75.614 13.9722 75.3555 13.9722Z" fill="black"/>
<path d="M113.039 28.4401C112.856 28.4401 112.673 28.397 112.5 28.3216C111.865 28.0199 111.585 27.2659 111.886 26.6195C113.19 23.8293 114.181 21.4701 114.892 19.4125C115.118 18.7446 115.861 18.3891 116.518 18.6261C117.186 18.8523 117.542 19.5849 117.305 20.2528C116.562 22.3966 115.549 24.842 114.202 27.7075C113.976 28.16 113.513 28.4401 113.039 28.4401ZM117.714 13.3582C117.714 13.3582 117.703 13.3582 117.693 13.3582C116.992 13.3474 116.421 12.7657 116.432 12.0655V11.7208C116.432 9.23224 115.743 7.19619 114.332 5.52641C113.879 4.98777 113.944 4.17981 114.482 3.72736C115.021 3.2749 115.829 3.33954 116.281 3.87818C118.102 6.03273 118.985 8.59665 118.985 11.7208V12.1086C118.975 12.798 118.404 13.3582 117.714 13.3582ZM85.3959 8.18728C84.9219 8.18728 84.4587 7.91796 84.2432 7.45474C83.9416 6.81914 84.2109 6.05428 84.8465 5.75264C87.335 4.56763 89.8558 3.54422 92.3336 2.69317C93.0015 2.45617 93.7233 2.82245 93.9603 3.49036C94.1865 4.15827 93.831 4.88004 93.1631 5.11705C90.7715 5.93578 88.3476 6.92687 85.9453 8.06878C85.7622 8.14419 85.579 8.18728 85.3959 8.18728ZM100.424 3.13486C99.8206 3.13486 99.282 2.70395 99.1635 2.0899C99.0342 1.38967 99.4975 0.721757 100.187 0.603257C103.279 0.0430728 106.047 -0.129291 108.45 0.107709C109.15 0.183119 109.667 0.807939 109.592 1.50817C109.516 2.2084 108.902 2.73626 108.191 2.65008C106.004 2.43463 103.483 2.59622 100.639 3.11331C100.575 3.12408 100.499 3.13486 100.424 3.13486Z" fill="black"/>
<path d="M107.835 38.8466C107.642 38.8466 107.448 38.8035 107.254 38.7065C106.629 38.3834 106.381 37.6185 106.694 36.9829L108.353 33.7295C108.676 33.1047 109.441 32.8462 110.076 33.1693C110.701 33.4925 110.96 34.2574 110.636 34.893L108.977 38.1464C108.751 38.5988 108.299 38.8466 107.835 38.8466Z" fill="black"/>
</svg>
