<svg width="209" height="150" viewBox="0 0 209 150" fill="none" xmlns="http://www.w3.org/2000/svg">
<path d="M202.772 56.8813C201.872 56.4662 200.931 56.314 200.004 56.3555C199.866 56.3416 199.714 56.314 199.575 56.3416C183.857 58.002 167.517 55.5253 152.172 48.275C136.841 41.0248 124.555 29.9834 115.852 16.7973C115.769 16.6728 115.658 16.5621 115.547 16.4514C114.994 15.7181 114.288 15.0816 113.389 14.6665C110.469 13.2967 106.996 14.542 105.626 17.4476L105.405 17.9181L104.188 20.4778C112.808 37.8147 127.087 52.4951 145.959 61.4196L106.54 144.881C129.425 155.687 173.577 132.303 186.611 104.714L205.317 65.1139L205.539 64.6435C206.922 61.724 205.677 58.2511 202.772 56.8813Z" fill="#ADADAD"/>
<path d="M104.201 20.4778L86.7123 57.5177C73.6784 85.1074 84.9412 134.669 106.567 144.881L145.987 61.4196C127.101 52.4951 112.822 37.8147 104.201 20.4778Z" fill="#EBEBEB"/>
<path d="M124.527 106.83C114.509 102.098 104.769 106.747 101.808 113.029C107.923 111.618 114.537 112.171 120.653 115.049C126.768 117.941 131.39 122.687 134.185 128.318C137.049 122.23 133.908 111.258 124.527 106.83Z" fill="#CA4D4C"/>
<path d="M134.171 130.325C133.41 130.325 132.704 129.896 132.372 129.204C129.66 123.739 125.302 119.477 119.781 116.862C114.261 114.261 108.2 113.61 102.251 114.98C101.49 115.146 100.715 114.883 100.23 114.288C99.7462 113.693 99.6494 112.863 99.9814 112.171C103.551 104.617 114.62 99.9262 125.385 105.018C130.159 107.273 133.853 111.244 135.818 116.225C137.616 120.778 137.672 125.62 135.997 129.19C135.665 129.882 134.974 130.338 134.199 130.338C134.185 130.325 134.185 130.325 134.171 130.325ZM108.352 110.262C112.863 110.262 117.305 111.258 121.497 113.237C126.201 115.464 130.159 118.73 133.175 122.825C133.12 121.165 132.746 119.394 132.068 117.692C130.477 113.68 127.502 110.469 123.655 108.657C116.765 105.405 110.303 107.176 106.498 110.331C107.121 110.29 107.744 110.262 108.352 110.262Z" fill="black"/>
<path d="M159.63 92.0256C167.683 95.8306 175.5 92.0948 177.88 87.0445C172.968 88.1791 167.655 87.7363 162.743 85.4118C157.831 83.1011 154.109 79.2685 151.868 74.7578C149.585 79.6559 152.103 88.4696 159.63 92.0256Z" fill="#CA4D4C"/>
<path d="M166.368 95.5954C163.919 95.5954 161.332 95.0558 158.772 93.852C150.429 89.9086 147.246 79.9049 150.055 73.9138C150.387 73.222 151.079 72.7654 151.854 72.7654C152.532 72.8069 153.334 73.1943 153.68 73.8861C155.825 78.1892 159.256 81.5653 163.615 83.6131C167.973 85.6747 172.747 86.1867 177.437 85.1074C178.185 84.9275 178.973 85.2043 179.457 85.7992C179.942 86.3942 180.039 87.2244 179.707 87.9162C177.617 92.3438 172.401 95.5954 166.368 95.5954ZM160.488 90.213C165.303 92.4822 169.841 91.6243 172.844 89.6734C169.053 89.5904 165.372 88.8986 161.885 87.2521C158.482 85.647 155.548 83.364 153.21 80.5276C153.777 84.0835 156.088 88.1237 160.488 90.213Z" fill="black"/>
<path d="M113.638 70.3026C121.691 74.1076 129.509 70.3717 131.888 65.3215C126.977 66.4561 121.663 66.0133 116.751 63.6888C111.84 61.3781 108.118 57.5454 105.876 53.0348C103.579 57.9329 106.097 66.7466 113.638 70.3026Z" fill="#CA4D4C"/>
<path d="M120.376 73.8723C117.927 73.8723 115.34 73.3327 112.78 72.1289C104.437 68.1856 101.241 58.1819 104.063 52.1907C104.395 51.4989 105.087 51.0423 105.862 51.0423C106.623 51.0147 107.343 51.4713 107.689 52.1631C109.833 56.48 113.265 59.8423 117.623 61.89C121.968 63.9378 126.755 64.4636 131.446 63.3844C132.193 63.2045 132.981 63.4812 133.466 64.0762C133.95 64.6711 134.047 65.5013 133.715 66.1931C131.612 70.6208 126.395 73.8723 120.376 73.8723ZM107.218 58.7769C107.785 62.3466 110.082 66.4007 114.496 68.4761C119.311 70.7453 123.849 69.8874 126.852 67.9365C123.102 67.9227 119.38 67.1617 115.893 65.5152C112.49 63.9101 109.556 61.6133 107.218 58.7769Z" fill="black"/>
<path d="M119.615 150C114.399 150 109.598 149.101 105.474 147.164C94.6266 142.044 85.5361 127.502 81.1777 108.283C76.8607 89.2723 78.0783 69.9014 84.4292 56.4524L103.357 16.3685C105.322 12.2176 110.303 10.4188 114.468 12.3836C115.616 12.9232 116.613 13.7257 117.443 14.7773C117.636 14.971 117.789 15.1509 117.941 15.3584C126.685 28.6136 138.889 39.1985 153.265 45.9783C167.641 52.7581 183.567 55.47 199.326 53.8097C199.645 53.782 199.907 53.7958 200.101 53.8097C201.416 53.7682 202.689 54.031 203.851 54.5845H203.865C208.016 56.5493 209.8 61.5304 207.836 65.6951L207.628 66.1517L188.921 105.765C177.368 130.2 144.078 150 119.615 150ZM110.912 16.6175C109.667 16.6175 108.477 17.3232 107.91 18.5131L88.9814 58.597C83.0871 71.0636 82.0078 89.2169 86.0896 107.163C90.0606 124.624 98.3071 138.211 107.633 142.611C128.581 152.504 171.612 130.643 184.355 103.634L203.27 63.5781C204.058 61.9178 203.353 59.9392 201.692 59.1505C201.222 58.9291 200.696 58.8461 200.115 58.8599L199.921 58.8738L199.728 58.8461C183.152 60.5895 166.299 57.7254 151.093 50.5443C135.887 43.3632 122.963 32.1696 113.748 18.181L113.527 17.9597C113.181 17.4892 112.766 17.1433 112.309 16.9358C111.867 16.7282 111.382 16.6175 110.912 16.6175Z" fill="black"/>
<path d="M107.19 2.51819C106.194 2.51819 105.281 2.78108 104.464 3.22384C104.326 3.26535 104.188 3.30686 104.063 3.38988C90.5588 11.6087 74.7162 16.3407 57.7667 16.3407C40.8171 16.3407 24.9745 11.6087 11.484 3.38988C11.3457 3.30686 11.2073 3.26535 11.0551 3.21001C10.2388 2.78108 9.32556 2.51819 8.34317 2.51819C5.1193 2.51819 2.51807 5.13326 2.51807 8.3433V8.85524V11.6917C17.7242 23.6878 36.9014 30.8689 57.7667 30.8689V123.171C83.0734 123.171 113.015 83.1703 113.015 52.6612V8.85524V8.3433C113.015 5.11942 110.414 2.51819 107.19 2.51819Z" fill="#ADADAD"/>
<path d="M2.51807 11.6917V52.6611C2.51807 83.1703 33.8574 123.171 57.7667 123.171V30.8688C36.9014 30.8688 17.7104 23.6878 2.51807 11.6917Z" fill="#EBEBEB"/>
<path d="M57.7672 99.8569C70.2476 99.8569 77.9406 90.4344 77.9406 82.6168C72.3922 87.0029 65.391 89.618 57.7672 89.618C50.1433 89.618 43.1421 87.0029 37.5938 82.6168C37.5938 90.1992 46.0893 99.8569 57.7672 99.8569Z" fill="#CA4D4C"/>
<path d="M57.7671 101.863C45.2729 101.863 35.5874 91.5136 35.5874 82.603C35.5874 81.8282 36.0302 81.1364 36.722 80.7905C37.4138 80.4584 38.244 80.5414 38.8389 81.0257C44.2905 85.315 50.8212 87.598 57.7671 87.598C64.7129 87.598 71.2437 85.3288 76.6814 81.0257C77.2902 80.5553 78.1065 80.4584 78.7984 80.7905C79.4902 81.1225 79.933 81.8282 79.933 82.603C79.9468 91.9149 71.0362 101.863 57.7671 101.863ZM40.7069 87.1275C43.1282 92.3992 49.3546 97.8369 57.7671 97.8369C67.0375 97.8369 72.9179 92.413 75.0349 87.003C69.8047 90.0332 63.9243 91.6105 57.7671 91.6105C51.6929 91.6243 45.8817 90.0747 40.7069 87.1275Z" fill="black"/>
<path d="M31.8374 40.2915C22.7608 40.2915 17.1709 47.1405 17.1709 52.8273C21.1973 49.6449 26.2891 47.7355 31.8374 47.7355C37.372 47.7355 42.4638 49.6449 46.4901 52.8273C46.4901 47.3204 40.333 40.2915 31.8374 40.2915Z" fill="#CA4D4C"/>
<path d="M46.4901 54.8474C46.0473 54.8474 45.6045 54.6952 45.2448 54.4184C41.3845 51.3744 36.7493 49.7694 31.8374 49.7694C26.9116 49.7694 22.2764 51.3744 18.4161 54.4184C17.8073 54.9027 16.9909 54.9857 16.2991 54.6537C15.6073 54.3216 15.1646 53.6159 15.1646 52.8411C15.1646 45.8122 21.8613 38.2991 31.8374 38.2991C41.2184 38.2991 48.4963 46.1166 48.4963 52.8411C48.4963 53.6159 48.0536 54.3077 47.3618 54.6537C47.085 54.7782 46.7945 54.8474 46.4901 54.8474ZM31.8374 42.3116C26.3305 42.3116 22.484 45.1619 20.5746 48.3304C27.4512 44.9544 35.9606 44.9129 42.8788 48.2197C40.8172 45.1066 36.8876 42.3116 31.8374 42.3116Z" fill="black"/>
<path d="M83.6962 40.2915C74.6195 40.2915 69.0435 47.1405 69.0435 52.8273C73.0837 49.6449 78.1616 47.7355 83.6962 47.7355C89.2307 47.7355 94.3225 49.6449 98.3489 52.8273C98.3489 47.3204 92.1917 40.2915 83.6962 40.2915Z" fill="#CA4D4C"/>
<path d="M98.3488 54.8474C97.906 54.8474 97.4633 54.6952 97.1035 54.4184C93.2432 51.3744 88.608 49.7694 83.6961 49.7694C78.7842 49.7694 74.149 51.3744 70.2887 54.4184C69.6799 54.9027 68.8635 54.9857 68.1717 54.6537C67.4799 54.3216 67.0371 53.6159 67.0371 52.8411C67.0371 45.8122 73.7339 38.2991 83.7099 38.2991C93.1048 38.2991 100.383 46.1166 100.383 52.8411C100.383 53.6159 99.94 54.3077 99.2482 54.6537C98.9576 54.7782 98.6532 54.8474 98.3488 54.8474ZM83.6961 42.3116C78.1892 42.3116 74.3427 45.1619 72.4333 48.3304C79.31 44.9544 87.8332 44.9267 94.7375 48.2336C92.6759 45.1066 88.7464 42.3116 83.6961 42.3116Z" fill="black"/>
<path d="M57.7668 125.69C32.3909 125.69 0 84.7339 0 52.6612V8.34333C0 3.74965 3.74965 0 8.34333 0C9.61627 0 10.8754 0.3044 12.0515 0.899364C12.2729 0.982382 12.5081 1.07924 12.7848 1.24527C26.3168 9.47791 41.8688 13.8225 57.7668 13.8225C73.6648 13.8225 89.2307 9.46407 102.763 1.23144C103.039 1.0654 103.288 0.968545 103.468 0.899364C104.658 0.3044 105.904 0 107.19 0C111.784 0 115.534 3.74965 115.534 8.34333V52.6612C115.534 85.4257 83.6823 125.69 57.7668 125.69ZM8.34333 5.0226C6.51693 5.0226 5.0226 6.50309 5.0226 8.34333V52.6612C5.0226 81.8974 35.089 120.667 57.7668 120.667C80.9289 120.667 110.511 82.5339 110.511 52.6612V8.34333C110.511 6.00498 107.979 4.19242 105.654 5.43769L105.295 5.60373C91.0571 14.2515 74.6057 18.859 57.7806 18.859C40.9418 18.8451 24.4904 14.2515 10.1697 5.53454L9.87916 5.43769C9.36722 5.16096 8.85527 5.0226 8.34333 5.0226Z" fill="black"/>
</svg>
